<svg xmlns="http://www.w3.org/2000/svg" xmlns:xlink="http://www.w3.org/1999/xlink" viewBox="0 0 209 300"><defs><style>.cls-1{fill:none;}.cls-2{opacity:0.1;}.cls-3{clip-path:url(#clip-path);}.cls-4,.cls-5{fill-rule:evenodd;}.cls-4{fill:url(#GradientFill_1);}.cls-5{fill:url(#GradientFill_2);}</style><clipPath id="clip-path"><rect class="cls-1" width="209" height="300"/></clipPath><linearGradient id="GradientFill_1" x1="240.44" y1="244.41" x2="21.47" y2="91.08" gradientUnits="userSpaceOnUse"><stop offset="0" stop-color="#006840"/><stop offset="0.4" stop-color="#007a48"/><stop offset="1" stop-color="#86c440"/></linearGradient><linearGradient id="GradientFill_2" x1="111.88" y1="21.38" x2="218.52" y2="96.05" gradientUnits="userSpaceOnUse"><stop offset="0" stop-color="#006840"/><stop offset="0.3" stop-color="#007a48"/><stop offset="1" stop-color="#86c440"/></linearGradient></defs><g id="Layer_2" data-name="Layer 2"><g id="Layer_1-2" data-name="Layer 1"><g class="cls-2"><g class="cls-3"><path class="cls-4" d="M209,179.19V300H120a947.51,947.51,0,0,1-76.49-66.58C11.58,202.11,0,174.9,0,150.81c0-15.64,4.88-30,12.24-43.24C32.78,70.51,73.4,35.75,108.34,12c-2.11,1.66-4.06,3.31-5.88,5-.9.83-1.76,1.65-2.59,2.47l0,0a71.86,71.86,0,0,0-5.63,6.21c-.34.41-.67.83-1,1.25-.63.82-1.22,1.65-1.79,2.48a48.25,48.25,0,0,0-3,5c-.43.83-.83,1.66-1.2,2.48a38,38,0,0,0-1.43,3.73c-.27.82-.51,1.65-.72,2.48C82.6,53,84.53,63,90,73.23c.67,1.26,1.42,2.54,2.23,3.84.2.32.4.64.62,1,.52.82,1.08,1.65,1.66,2.49S95.59,82,96.16,82.8c2.55,3.48,5.5,7.07,8.76,10.73.39.44.79.89,1.21,1.34q1.83,2,3.77,4.07,1.29,1.36,2.64,2.73l1.35,1.37c.9.91,1.82,1.83,2.75,2.74s1.87,1.83,2.82,2.75h0c.93.9,1.87,1.8,2.82,2.68.51.49,1,1,1.54,1.44l1.48,1.38c.35.31.69.63,1,.95l3.49,3.16c1.52,1.36,3.06,2.72,4.6,4.07l1.55,1.35,3,2.56q.92.77,1.83,1.56l3.67,3.09,2.45,2c.52.44,1,.86,1.56,1.29q3.12,2.57,6.2,5l2.52,2q4.09,3.26,8,6.3l1.46,1.13c2.9,2.24,5.71,4.38,8.39,6.4,5,3.75,9.51,7.08,13.38,9.88Q198.65,172.25,209,179.19Z"/><path class="cls-5" d="M209,0V133.35c-13.62,8.1-25.34,15.62-33.95,21.64-2.68-2-5.49-4.16-8.39-6.4l-1.46-1.13q-3.91-3-8-6.3l-2.52-2q-3.07-2.47-6.2-5c-.52-.43-1-.85-1.56-1.29l-2.45-2-3.67-3.09q-.92-.8-1.83-1.56l-3-2.56-1.55-1.35c-1.54-1.35-3.08-2.71-4.6-4.07L126.35,115c-.34-.32-.68-.64-1-.95l-1.48-1.38c-.52-.47-1-1-1.54-1.44-1-.89-1.89-1.79-2.82-2.68h0c-.95-.92-1.89-1.83-2.82-2.75s-1.85-1.83-2.75-2.74l-1.35-1.37q-1.35-1.36-2.64-2.73-1.94-2-3.77-4.07l-1.21-1.34c-3.26-3.66-6.21-7.25-8.76-10.73-.57-.77-1.12-1.53-1.64-2.28S93.38,78.85,92.86,78c-.21-.32-.42-.64-.62-1-.81-1.3-1.56-2.58-2.23-3.84C84.53,63,82.6,53,85.11,43c.21-.83.44-1.65.72-2.48a38,38,0,0,1,1.43-3.73c.37-.83.76-1.65,1.2-2.48a48.25,48.25,0,0,1,3-5c.56-.83,1.15-1.66,1.79-2.48.31-.42.64-.84,1-1.25a71.86,71.86,0,0,1,5.63-6.21l0,0c.83-.83,1.69-1.65,2.59-2.47,1.82-1.66,3.77-3.31,5.88-5l0,0Q117.55,5.76,126.92,0Z"/></g></g></g></g></svg>