<?xml version="1.0" encoding="utf-8"?>
<!-- Generator: Adobe Illustrator 27.9.0, SVG Export Plug-In . SVG Version: 6.00 Build 0)  -->
<svg version="1.1" id="Layer_1" xmlns="http://www.w3.org/2000/svg" xmlns:xlink="http://www.w3.org/1999/xlink" x="0px" y="0px"
	 viewBox="0 0 260 260" style="enable-background:new 0 0 260 260;" xml:space="preserve">
<style type="text/css">
	.st0{fill:#7EAF00;}
</style>
<path class="st0" d="M1.5,24C2.3,24,3,23.3,3,22.5V3h19.4C23.3,3,24,2.3,24,1.5S23.3,0,22.5,0h-21C0.7,0,0,0.7,0,1.5v21
	C0,23.3,0.7,24,1.5,24z"/>
<path class="st0" d="M236,1.5c0,0.8,0.7,1.5,1.5,1.5H257v19.4c0,0.8,0.7,1.5,1.5,1.5s1.5-0.7,1.5-1.5V1.5c0-0.8-0.7-1.5-1.5-1.5h-21
	C236.7,0,236,0.7,236,1.5z"/>
<path class="st0" d="M258.5,236c-0.8,0-1.5,0.7-1.5,1.5V257h-19.4c-0.8,0-1.5,0.7-1.5,1.5s0.7,1.5,1.5,1.5h20.9
	c0.8,0,1.5-0.7,1.5-1.5v-21C260,236.7,259.3,236,258.5,236z"/>
<path class="st0" d="M24,258.5c0-0.8-0.7-1.5-1.5-1.5H3v-19.4c0-0.8-0.7-1.5-1.5-1.5S0,236.8,0,237.6v20.9c0,0.8,0.7,1.5,1.5,1.5h21
	C23.3,260,24,259.3,24,258.5z"/>
</svg>
